:SAMPLES-PER-SECOND 24
:FULLY-SPECIFIED
:DEGREES
181
root  -0.655856 41.2234 22.1791 172.444 64.2102 175.168
RightUpLeg  3.51446 -8.59158 -19.8182
RightLeg  20.6347 5.72177 2.16686
RightFoot  10.3753 -3.009 15.9634
RightToes  -1.74623e-010 0 -2.59999e-017
Spine  0.519883 2.48227 2.14554
Spine1  14.9143 3.67059 -4.01323
HEad  -22.6101 49.4116 -26.449
LeftShoulder1  1.69149 -3.44181 -17.7272
LeftArm  12.816 20.6782 -45.1052
LeftForeArm  29.9595 -57.4013 -15.003
LeftHand  -0.182322 2.60397 7.22591
RightShoulder  2.82259 5.20485 26.4012
RightArm  8.64938 -18.5876 42.1217
RightForeArm  148.749 55.4902 163.746
RightHand  0.0478157 -6.49124 -7.83219
LeftUpLeg  -4.87153 7.78798 10.9844
LeftLeg  22.0493 -4.97795 -1.896
LeftFoot  13.4077 2.08144 -9.8561
LeftToes  -6.27559e-011 -2.10356e-011 8.24929e-012
182
root  -0.738796 40.4544 22.4496 171.612 64.5937 174.731
RightUpLeg  2.94248 -6.75405 -20.027
RightLeg  23.2031 5.86796 2.53395
RightFoot  6.1013 -2.46741 16.2477
RightToes  -1.74623e-010 0 -2.59999e-017
Spine  2.09722 2.58917 2.34368
Spine1  14.3895 3.85327 -4.53264
HEad  -23.6209 48.8795 -27.1439
LeftShoulder1  1.60104 -3.41858 -16.405
LeftArm  13.982 20.5891 -45.1111
LeftForeArm  32.1544 -58.265 -15.3636
LeftHand  -0.199566 2.65697 8.09811
RightShoulder  2.66949 5.04746 25.1529
RightArm  6.85418 -14.9448 40.5504
RightForeArm  146.272 53.9244 164.413
RightHand  0.0106801 -5.9379 -7.42259
LeftUpLeg  -5.11425 8.09944 10.8658
LeftLeg  25.591 -5.37741 -2.46318
LeftFoot  8.54766 1.76142 -10.3206
LeftToes  -6.27559e-011 -2.10356e-011 8.24929e-012
183
root  -0.870908 39.1069 22.8454 170.773 64.9262 173.796
RightUpLeg  1.23214 -6.45564 -20.6282
RightLeg  28.481 6.92724 3.83567
RightFoot  -4.33689 -1.09307 17.2525
RightToes  -1.74623e-010 0 -2.59999e-017
Spine  3.38568 2.82693 1.07071
Spine1  13.8032 3.66894 -3.89506
HEad  -25.2311 48.3163 -28.3688
LeftShoulder1  1.63606 -3.52476 -16.5667
LeftArm  14.42 19.0838 -44.2384
LeftForeArm  29.5756 -57.9146 -15.3832
LeftHand  -0.235655 2.4059 8.87869
RightShoulder  2.57051 4.90536 24.4704
RightArm  2.47187 -8.38546 38.1369
RightForeArm  141.581 54.413 163.807
RightHand  0.00827884 -5.79454 -8.86782
LeftUpLeg  -7.38987 9.06005 11.0355
LeftLeg  31.3547 -3.83082 -2.1558
LeftFoot  -1.02138 0.933516 -10.2507
LeftToes  -6.27559e-011 -2.10356e-011 8.24929e-012
184
root  -1.10868 37.6566 23.3435 171.037 64.1152 173.783
RightUpLeg  -1.30394 -7.77416 -20.9901
RightLeg  35.2547 7.84974 5.68159
RightFoot  -15.3106 0.484384 17.0392
RightToes  -1.74623e-010 0 -2.59999e-017
Spine  3.90608 2.45785 -0.486513
Spine1  15.2635 2.67596 -2.25491
HEad  -30.7275 47.0632 -33.1817
LeftShoulder1  1.70051 -3.28896 -18.4762
LeftArm  15.3597 12.8517 -42.293
LeftForeArm  24.8615 -54.4269 -13.7215
LeftHand  -0.246993 2.64175 10.1
RightShoulder  2.60907 4.7815 25.4373
RightArm  -3.93018 1.93042 35.3822
RightForeArm  136.852 57.9213 161.297
RightHand  0.130549 -6.94639 -11.4697
LeftUpLeg  -12.2737 9.01961 11.9082
LeftLeg  39.8142 -4.47915 -3.62045
LeftFoot  -8.567 0.318441 -10.9799
LeftToes  -6.27559e-011 -2.10356e-011 8.24929e-012
185
root  -1.28637 36.8583 23.7505 171.394 63.2344 174.354
RightUpLeg  -2.6497 -9.03198 -21.0175
RightLeg  39.3125 8.33584 6.99563
RightFoot  -19.9166 1.06583 15.8782
RightToes  -1.74623e-010 0 -2.59999e-017
Spine  4.14764 1.7608 -0.105429
Spine1  17.5081 2.11907 -2.53452
HEad  -35.1633 46.0215 -36.5624
LeftShoulder1  1.72625 -2.96802 -20.2243
LeftArm  14.8309 4.7629 -42.3888
LeftForeArm  26.1246 -45.1716 -9.51668
LeftHand  -0.245061 3.10936 11.8593
RightShoulder  2.89993 5.05185 27.9296
RightArm  -8.40585 10.3838 36.2859
RightForeArm  134.047 64.6105 155.4
RightHand  0.496603 -9.27539 -15.3389
LeftUpLeg  -14.868 8.65746 12.9675
LeftLeg  44.2037 -5.58018 -5.33674
LeftFoot  -10.905 0.110434 -11.7435
LeftToes  -6.27559e-011 -2.10356e-011 8.24929e-012
186
root  -1.19274 37.255 23.9275 170.505 63.4926 173.84
RightUpLeg  -1.53857 -9.13443 -21.1202
RightLeg  37.5099 9.19563 7.24554
RightFoot  -17.9305 0.827487 16.3258
RightToes  -1.74623e-010 0 -2.59999e-017
Spine  3.91575 1.77965 1.05023
Spine1  18.1197 2.76527 -4.29284
HEad  -33.362 46.8815 -34.903
LeftShoulder1  1.74076 -3.05049 -20.1086
LeftArm  13.0335 1.96045 -46.5816
LeftForeArm  27.233 -34.3304 -6.09484
LeftHand  -0.0199776 5.26152 18.5076
RightShoulder  3.11079 5.37647 29.1068
RightArm  -6.6457 10.3888 42.3215
RightForeArm  130.168 69.6966 148.451
RightHand  1.33955 -11.5733 -24.8769
LeftUpLeg  -12.315 8.39374 12.8371
LeftLeg  40.0666 -4.98092 -4.07795
LeftFoot  -10.0867 0.195315 -12.2631
LeftToes  -6.27559e-011 -2.10356e-011 8.24929e-012
187
root  -0.932901 38.6788 23.8959 169.864 63.9377 173.09
RightUpLeg  0.611041 -8.72717 -20.8134
RightLeg  31.4486 9.54396 6.02041
RightFoot  -9.81721 -0.309627 18.0861
RightToes  -1.74623e-010 0 -2.59999e-017
Spine  3.13246 2.31865 1.39456
Spine1  17.2279 3.42681 -4.36971
HEad  -28.6275 48.4317 -32.077
LeftShoulder1  1.77773 -3.19088 -20.1028
LeftArm  14.855 4.22175 -49.9446
LeftForeArm  16.3109 -28.7145 -5.327
LeftHand  0.1265 5.98826 24.8205
RightShoulder  3.13313 5.4584 29.0323
RightArm  -1.08447 3.82155 46.2611
RightForeArm  127.995 69.7434 148.116
RightHand  1.81502 -11.8087 -31.8604
LeftUpLeg  -8.23617 7.21082 11.7329
LeftLeg  31.5161 -3.12146 -1.70173
LeftFoot  -2.59824 0.961008 -12.331
LeftToes  -6.27559e-011 -2.10356e-011 8.24929e-012
188
root  -0.70062 40.4021 23.8113 170.466 64.0612 173.178
RightUpLeg  1.8743 -8.26418 -19.7011
RightLeg  24.8109 8.05632 3.8392
RightFoot  3.4077 -2.3915 18.5816
RightToes  -1.74623e-010 0 -2.59999e-017
Spine  2.30679 2.57188 1.57968
Spine1  15.8636 3.61607 -3.73495
HEad  -25.1681 49.5298 -30.1986
LeftShoulder1  1.83431 -3.1015 -21.4004
LeftArm  17.8458 8.08115 -48.8196
LeftForeArm  6.99462 -29.4145 -6.01221
LeftHand  -0.280232 3.7245 18.853
RightShoulder  3.18932 5.49246 29.5367
RightArm  5.13156 -3.50372 44.9361
RightForeArm  132.077 66.5325 153.141
RightHand  1.1399 -10.8687 -24.1942
LeftUpLeg  -5.73352 6.6342 10.8358
LeftLeg  23.3392 -0.587236 0.0682569
LeftFoot  11.7407 2.14652 -10.8854
LeftToes  -6.27559e-011 -2.10356e-011 8.24929e-012
189
root  -0.5458 41.5683 23.7668 171.247 64.2329 173.399
RightUpLeg  2.00424 -7.84274 -18.6186
RightLeg  20.6031 6.05562 2.29984
RightFoot  13.2208 -3.69372 17.2959
RightToes  -1.74623e-010 0 -2.59999e-017
Spine  1.58268 2.56996 1.8655
Spine1  14.5005 3.72035 -3.97599
HEad  -22.6644 50.1535 -27.3924
LeftShoulder1  1.86079 -3.13697 -21.666
LeftArm  15.7348 13.0863 -46.9533
LeftForeArm  11.0332 -33.5054 -6.8156
LeftHand  -0.283642 1.5512 8.54888
RightShoulder  3.15425 5.46742 29.2413
RightArm  10.2191 -8.86081 43.4971
RightForeArm  138.966 63.6298 156.988
RightHand  0.218375 -8.18962 -9.59734
LeftUpLeg  -4.38431 7.85128 10.3358
LeftLeg  17.5422 1.17519 0.633636
LeftFoot  20.5284 2.40665 -8.83954
LeftToes  -6.27559e-011 -2.10356e-011 8.24929e-012
